<?xml version="1.0" encoding="UTF-8"?>
<svg xmlns="http://www.w3.org/2000/svg" version="1.1" width="300" height="300" viewBox="0 0 300 300"><rect x="0" y="0" width="300" height="300" fill="#ffffff"/><g transform="scale(14.286)"><g transform="translate(0,0)"><path fill-rule="evenodd" d="M8 0L8 2L9 2L9 4L8 4L8 9L7 9L7 8L5 8L5 9L4 9L4 10L3 10L3 8L0 8L0 10L1 10L1 11L2 11L2 13L3 13L3 12L5 12L5 13L7 13L7 12L5 12L5 9L7 9L7 10L6 10L6 11L8 11L8 14L10 14L10 15L8 15L8 16L9 16L9 17L10 17L10 18L11 18L11 19L12 19L12 20L10 20L10 19L9 19L9 18L8 18L8 21L9 21L9 20L10 20L10 21L12 21L12 20L13 20L13 21L21 21L21 18L19 18L19 17L20 17L20 16L19 16L19 14L20 14L20 15L21 15L21 14L20 14L20 12L21 12L21 8L19 8L19 9L18 9L18 10L16 10L16 9L17 9L17 8L12 8L12 7L13 7L13 6L12 6L12 7L11 7L11 5L10 5L10 7L9 7L9 4L10 4L10 3L11 3L11 4L12 4L12 5L13 5L13 3L12 3L12 2L13 2L13 0ZM10 1L10 2L11 2L11 1ZM1 9L1 10L2 10L2 11L3 11L3 10L2 10L2 9ZM8 9L8 10L9 10L9 12L10 12L10 11L11 11L11 14L13 14L13 15L11 15L11 16L13 16L13 17L11 17L11 18L12 18L12 19L13 19L13 20L14 20L14 19L13 19L13 17L14 17L14 18L15 18L15 14L17 14L17 15L16 15L16 16L17 16L17 15L18 15L18 14L19 14L19 13L18 13L18 12L19 12L19 10L20 10L20 9L19 9L19 10L18 10L18 11L17 11L17 12L16 12L16 11L15 11L15 12L14 12L14 13L13 13L13 12L12 12L12 11L13 11L13 10L15 10L15 9L10 9L10 10L9 10L9 9ZM17 13L17 14L18 14L18 13ZM13 15L13 16L14 16L14 15ZM16 17L16 18L17 18L17 19L15 19L15 20L17 20L17 19L18 19L18 18L17 18L17 17ZM19 19L19 20L20 20L20 19ZM0 0L0 7L7 7L7 0ZM1 1L1 6L6 6L6 1ZM2 2L2 5L5 5L5 2ZM14 0L14 7L21 7L21 0ZM15 1L15 6L20 6L20 1ZM16 2L16 5L19 5L19 2ZM0 14L0 21L7 21L7 14ZM1 15L1 20L6 20L6 15ZM2 16L2 19L5 19L5 16Z" fill="#000000"/></g></g></svg>
