<?xml version="1.0" encoding="UTF-8"?>
<svg xmlns="http://www.w3.org/2000/svg" version="1.1" width="300" height="300" viewBox="0 0 300 300"><rect x="0" y="0" width="300" height="300" fill="#ffffff"/><g transform="scale(14.286)"><g transform="translate(0,0)"><path fill-rule="evenodd" d="M8 0L8 1L9 1L9 2L8 2L8 5L11 5L11 4L12 4L12 3L13 3L13 0L12 0L12 3L11 3L11 2L10 2L10 0ZM9 2L9 4L11 4L11 3L10 3L10 2ZM8 6L8 7L9 7L9 8L8 8L8 9L7 9L7 8L6 8L6 9L4 9L4 8L0 8L0 10L1 10L1 13L2 13L2 12L3 12L3 13L4 13L4 12L5 12L5 13L7 13L7 12L8 12L8 11L10 11L10 10L9 10L9 8L10 8L10 9L11 9L11 6L10 6L10 7L9 7L9 6ZM12 6L12 7L13 7L13 6ZM13 8L13 9L12 9L12 12L11 12L11 14L12 14L12 12L13 12L13 9L14 9L14 8ZM16 8L16 9L19 9L19 8ZM20 8L20 13L19 13L19 12L16 12L16 13L19 13L19 14L21 14L21 8ZM3 9L3 10L2 10L2 11L3 11L3 12L4 12L4 11L3 11L3 10L4 10L4 9ZM6 9L6 10L5 10L5 11L6 11L6 12L7 12L7 11L6 11L6 10L7 10L7 9ZM14 10L14 14L13 14L13 15L12 15L12 16L11 16L11 17L12 17L12 16L14 16L14 17L13 17L13 18L14 18L14 17L15 17L15 19L14 19L14 20L11 20L11 18L10 18L10 16L9 16L9 17L8 17L8 21L10 21L10 20L11 20L11 21L15 21L15 19L16 19L16 18L17 18L17 19L18 19L18 20L19 20L19 21L20 21L20 20L19 20L19 18L20 18L20 17L18 17L18 14L16 14L16 15L17 15L17 17L15 17L15 10ZM17 10L17 11L19 11L19 10ZM8 13L8 14L9 14L9 15L10 15L10 14L9 14L9 13ZM9 18L9 19L10 19L10 18ZM16 20L16 21L17 21L17 20ZM0 0L0 7L7 7L7 0ZM1 1L1 6L6 6L6 1ZM2 2L2 5L5 5L5 2ZM14 0L14 7L21 7L21 0ZM15 1L15 6L20 6L20 1ZM16 2L16 5L19 5L19 2ZM0 14L0 21L7 21L7 14ZM1 15L1 20L6 20L6 15ZM2 16L2 19L5 19L5 16Z" fill="#000000"/></g></g></svg>
